G04 Layer: BottomLayer*
G04 EasyEDA v6.5.40, 2024-02-06 12:01:40*
G04 02006c4c86064340860494df04e49ce3,9a5be75d700b4a6385dc1106f27949ae,10*
G04 Gerber Generator version 0.2*
G04 Scale: 100 percent, Rotated: No, Reflected: No *
G04 Dimensions in millimeters *
G04 leading zeros omitted , absolute positions ,4 integer and 5 decimal *
%FSLAX45Y45*%
%MOMM*%

%ADD10C,0.3000*%
%ADD11C,0.4000*%
%ADD12C,1.0000*%
%ADD13C,0.6200*%

%LPD*%
G36*
X2490724Y7405370D02*
G01*
X2486863Y7406182D01*
X2483561Y7408367D01*
X2481376Y7411669D01*
X2480564Y7415530D01*
X2480513Y8009331D01*
X2481275Y8013242D01*
X2483459Y8016544D01*
X2486761Y8018729D01*
X2490673Y8019491D01*
X3059379Y8019491D01*
X3063290Y8018729D01*
X3066592Y8016544D01*
X3068777Y8013242D01*
X3069590Y8009331D01*
X3069590Y7504277D01*
X3068777Y7500416D01*
X3066592Y7497114D01*
X3063290Y7494930D01*
X3059379Y7494117D01*
X3055518Y7494930D01*
X3052216Y7497114D01*
X3050032Y7500416D01*
X3048457Y7504175D01*
X3044139Y7512354D01*
X3031134Y7531811D01*
X3024835Y7539481D01*
X2927705Y7636611D01*
X2920593Y7642555D01*
X2906064Y7652258D01*
X2897886Y7656677D01*
X2881731Y7663383D01*
X2872892Y7666126D01*
X2862630Y7668158D01*
X2851150Y7670749D01*
X2843580Y7672984D01*
X2836672Y7675727D01*
X2824988Y7681163D01*
X2815082Y7684566D01*
X2805074Y7686243D01*
X2794914Y7686243D01*
X2784906Y7684566D01*
X2775305Y7681264D01*
X2766364Y7676438D01*
X2758338Y7670190D01*
X2751480Y7662722D01*
X2745943Y7654239D01*
X2741879Y7644942D01*
X2739339Y7635087D01*
X2738526Y7624978D01*
X2739339Y7614869D01*
X2741879Y7605014D01*
X2745943Y7595717D01*
X2751480Y7587234D01*
X2758338Y7579766D01*
X2766364Y7573518D01*
X2775305Y7568692D01*
X2784906Y7565390D01*
X2794914Y7563713D01*
X2805074Y7563713D01*
X2815082Y7565390D01*
X2824988Y7568793D01*
X2841345Y7577023D01*
X2844292Y7577988D01*
X2849981Y7577683D01*
X2852470Y7576972D01*
X2859684Y7573822D01*
X2866898Y7568742D01*
X2956966Y7478674D01*
X2958236Y7477099D01*
X2965348Y7466431D01*
X2966466Y7464196D01*
X2969107Y7456881D01*
X2969666Y7452715D01*
X2968091Y7447940D01*
X2960014Y7436053D01*
X2952902Y7424978D01*
X2947517Y7415022D01*
X2946298Y7411821D01*
X2944114Y7408468D01*
X2940761Y7406182D01*
X2936849Y7405370D01*
X2913176Y7405370D01*
X2909214Y7406182D01*
X2905861Y7408468D01*
X2903677Y7411821D01*
X2902508Y7414920D01*
X2896463Y7425334D01*
X2888996Y7434732D01*
X2880156Y7442911D01*
X2870250Y7449667D01*
X2861360Y7453985D01*
X2861360Y7415530D01*
X2860548Y7411669D01*
X2858363Y7408367D01*
X2855061Y7406182D01*
X2851200Y7405370D01*
X2808782Y7405370D01*
X2804922Y7406182D01*
X2801620Y7408367D01*
X2799435Y7411669D01*
X2798622Y7415530D01*
X2798622Y7453985D01*
X2789732Y7449667D01*
X2779826Y7442911D01*
X2770987Y7434732D01*
X2763520Y7425334D01*
X2757474Y7414920D01*
X2756306Y7411821D01*
X2754122Y7408468D01*
X2750769Y7406182D01*
X2746806Y7405370D01*
G37*

%LPD*%
G36*
X3023717Y7484211D02*
G01*
X2995980Y7472730D01*
X2999486Y7462215D01*
X3000654Y7453274D01*
X2999892Y7445451D01*
X2997606Y7438491D01*
X2994101Y7431836D01*
X2984855Y7418324D01*
X2979826Y7410602D01*
X2975000Y7401814D01*
X3019958Y7354976D01*
X3064967Y7401814D01*
X3059633Y7412583D01*
X3042513Y7444028D01*
X3034080Y7460691D01*
X3029204Y7471308D01*
G37*
G36*
X2813507Y7652867D02*
G01*
X2784500Y7624978D01*
X2813507Y7597089D01*
X2827680Y7604353D01*
X2831846Y7606182D01*
X2836062Y7607553D01*
X2840685Y7608417D01*
X2845816Y7608722D01*
X2851759Y7608366D01*
X2858770Y7607249D01*
X2864612Y7636662D01*
X2849829Y7639710D01*
X2838907Y7642453D01*
X2829560Y7645653D01*
X2819501Y7650022D01*
G37*
G36*
X2754630Y7457389D02*
G01*
X2746806Y7418120D01*
X2756204Y7415428D01*
X2763215Y7411669D01*
X2768396Y7406894D01*
X2772054Y7401255D01*
X2774645Y7394803D01*
X2776575Y7387742D01*
X2780233Y7372045D01*
X2782773Y7363612D01*
X2847695Y7362342D01*
X2846425Y7427214D01*
X2834792Y7431430D01*
X2799842Y7445298D01*
X2791002Y7448296D01*
X2780944Y7451293D01*
X2769006Y7454290D01*
G37*
G36*
X2906725Y7459980D02*
G01*
X2891790Y7459319D01*
X2879547Y7457389D01*
X2869285Y7454493D01*
X2860344Y7450785D01*
X2852166Y7446467D01*
X2835300Y7436815D01*
X2825394Y7431887D01*
X2813558Y7427214D01*
X2812288Y7362342D01*
X2877210Y7363612D01*
X2879496Y7372096D01*
X2880766Y7380833D01*
X2882646Y7397394D01*
X2884170Y7404709D01*
X2886862Y7410958D01*
X2891180Y7415733D01*
X2897632Y7418882D01*
X2906725Y7420000D01*
G37*
G36*
X2703474Y7467904D02*
G01*
X2674467Y7440015D01*
X2703474Y7412075D01*
X2712415Y7416139D01*
X2716530Y7417663D01*
X2720695Y7418831D01*
X2725064Y7419594D01*
X2729788Y7419898D01*
X2735072Y7419746D01*
X2741015Y7419136D01*
X2747822Y7417917D01*
X2755646Y7457186D01*
X2740507Y7459675D01*
X2728823Y7461046D01*
X2718866Y7462570D01*
X2713990Y7463790D01*
X2708960Y7465517D01*
G37*
G36*
X2915970Y7467650D02*
G01*
X2909316Y7464602D01*
X2903118Y7462215D01*
X2891231Y7458202D01*
X2885389Y7455916D01*
X2879394Y7453020D01*
X2873095Y7449159D01*
X2866390Y7444079D01*
X2859074Y7437374D01*
X2887370Y7409078D01*
X2890824Y7412126D01*
X2894228Y7414209D01*
X2897581Y7415479D01*
X2900883Y7416038D01*
X2904134Y7415987D01*
X2907334Y7415479D01*
X2913786Y7413294D01*
X2916986Y7411821D01*
X2945485Y7440269D01*
G37*
D10*
X2799989Y7624986D02*
G01*
X2846412Y7624986D01*
X2863905Y7621506D01*
X2880385Y7614681D01*
X2895213Y7604772D01*
X2993034Y7506952D01*
X3006244Y7487180D01*
X3015345Y7465212D01*
X3019983Y7441890D01*
X3019983Y7379995D01*
D11*
X2829991Y7379995D02*
G01*
X2791559Y7418428D01*
X2775739Y7428997D01*
X2758163Y7436279D01*
X2739504Y7439990D01*
X2689986Y7439990D01*
X2829991Y7379995D02*
G01*
X2882635Y7432639D01*
X2900382Y7439990D01*
X2929991Y7439990D01*
G75*
G01*
X2792727Y7417260D02*
G03*
X2867256Y7417260I37265J37264D01*
D12*
G01*
X2829991Y7379995D03*
G01*
X3019983Y7379995D03*
D13*
G01*
X2799994Y7624978D03*
G01*
X2499995Y7999984D03*
G01*
X2599994Y7999984D03*
G01*
X2659989Y7769987D03*
G01*
X2510002Y7439990D03*
G01*
X2599994Y7439990D03*
G01*
X2689986Y7439990D03*
G01*
X2659989Y7519974D03*
G01*
X2929991Y7439990D03*
G01*
X2659989Y7949971D03*
M02*
