G04 Layer: BottomSilkscreenLayer*
G04 EasyEDA v6.5.40, 2024-02-06 12:01:40*
G04 02006c4c86064340860494df04e49ce3,9a5be75d700b4a6385dc1106f27949ae,10*
G04 Gerber Generator version 0.2*
G04 Scale: 100 percent, Rotated: No, Reflected: No *
G04 Dimensions in millimeters *
G04 leading zeros omitted , absolute positions ,4 integer and 5 decimal *
%FSLAX45Y45*%
%MOMM*%

%ADD10C,0.1500*%

%LPD*%
D10*
X2975447Y7982529D02*
G01*
X2979084Y7989801D01*
X2986356Y7997075D01*
X2993631Y8000710D01*
X3008175Y8000710D01*
X3015447Y7997075D01*
X3022721Y7989801D01*
X3026356Y7982529D01*
X3029993Y7971619D01*
X3029993Y7953438D01*
X3026356Y7942529D01*
X3022721Y7935257D01*
X3015447Y7927985D01*
X3008175Y7924347D01*
X2993631Y7924347D01*
X2986356Y7927985D01*
X2979084Y7935257D01*
X2975447Y7942529D01*
X2975447Y7953438D01*
X2993631Y7953438D02*
G01*
X2975447Y7953438D01*
X2951449Y8000710D02*
G01*
X2951449Y7924347D01*
X2951449Y8000710D02*
G01*
X2918721Y8000710D01*
X2907812Y7997075D01*
X2904175Y7993438D01*
X2900540Y7986166D01*
X2900540Y7978894D01*
X2904175Y7971619D01*
X2907812Y7967985D01*
X2918721Y7964347D01*
X2951449Y7964347D02*
G01*
X2918721Y7964347D01*
X2907812Y7960710D01*
X2904175Y7957075D01*
X2900540Y7949801D01*
X2900540Y7938894D01*
X2904175Y7931619D01*
X2907812Y7927985D01*
X2918721Y7924347D01*
X2951449Y7924347D01*
X2821993Y7982529D02*
G01*
X2825630Y7989801D01*
X2832902Y7997075D01*
X2840177Y8000710D01*
X2854721Y8000710D01*
X2861993Y7997075D01*
X2869267Y7989801D01*
X2872902Y7982529D01*
X2876539Y7971619D01*
X2876539Y7953438D01*
X2872902Y7942529D01*
X2869267Y7935257D01*
X2861993Y7927985D01*
X2854721Y7924347D01*
X2840177Y7924347D01*
X2832902Y7927985D01*
X2825630Y7935257D01*
X2821993Y7942529D01*
X2741993Y8000710D02*
G01*
X2741993Y7924347D01*
X2741993Y7924347D02*
G01*
X2698358Y7924347D01*
X2674358Y8000710D02*
G01*
X2674358Y7924347D01*
X2674358Y8000710D02*
G01*
X2648905Y8000710D01*
X2637995Y7997075D01*
X2630721Y7989801D01*
X2627086Y7982529D01*
X2623449Y7971619D01*
X2623449Y7953438D01*
X2627086Y7942529D01*
X2630721Y7935257D01*
X2637995Y7927985D01*
X2648905Y7924347D01*
X2674358Y7924347D01*
X2577630Y8000710D02*
G01*
X2584904Y7997075D01*
X2592176Y7989801D01*
X2595813Y7982529D01*
X2599448Y7971619D01*
X2599448Y7953438D01*
X2595813Y7942529D01*
X2592176Y7935257D01*
X2584904Y7927985D01*
X2577630Y7924347D01*
X2563086Y7924347D01*
X2555814Y7927985D01*
X2548539Y7935257D01*
X2544904Y7942529D01*
X2541267Y7953438D01*
X2541267Y7971619D01*
X2544904Y7982529D01*
X2548539Y7989801D01*
X2555814Y7997075D01*
X2563086Y8000710D01*
X2577630Y8000710D01*
X3029993Y7850710D02*
G01*
X3029993Y7774348D01*
X3029993Y7850710D02*
G01*
X2997266Y7850710D01*
X2986356Y7847076D01*
X2982722Y7843438D01*
X2979084Y7836166D01*
X2979084Y7828894D01*
X2982722Y7821620D01*
X2986356Y7817985D01*
X2997266Y7814348D01*
X3029993Y7814348D01*
X3004540Y7814348D02*
G01*
X2979084Y7774348D01*
X2955084Y7850710D02*
G01*
X2955084Y7774348D01*
X2955084Y7850710D02*
G01*
X2922358Y7850710D01*
X2911449Y7847076D01*
X2907812Y7843438D01*
X2904175Y7836166D01*
X2904175Y7825257D01*
X2907812Y7817985D01*
X2911449Y7814348D01*
X2922358Y7810710D01*
X2955084Y7810710D01*
X2880177Y7850710D02*
G01*
X2880177Y7774348D01*
X2880177Y7774348D02*
G01*
X2836539Y7774348D01*
X2757995Y7832529D02*
G01*
X2761630Y7839801D01*
X2768904Y7847076D01*
X2776176Y7850710D01*
X2790720Y7850710D01*
X2797995Y7847076D01*
X2805267Y7839801D01*
X2808904Y7832529D01*
X2812539Y7821620D01*
X2812539Y7803438D01*
X2808904Y7792529D01*
X2805267Y7785257D01*
X2797995Y7777985D01*
X2790720Y7774348D01*
X2776176Y7774348D01*
X2768904Y7777985D01*
X2761630Y7785257D01*
X2757995Y7792529D01*
X2733995Y7850710D02*
G01*
X2733995Y7774348D01*
X2733995Y7850710D02*
G01*
X2704904Y7774348D01*
X2675813Y7850710D02*
G01*
X2704904Y7774348D01*
X2675813Y7850710D02*
G01*
X2675813Y7774348D01*
X2651813Y7850710D02*
G01*
X2651813Y7774348D01*
X2651813Y7850710D02*
G01*
X2600904Y7774348D01*
X2600904Y7850710D02*
G01*
X2600904Y7774348D01*
X2551450Y7850710D02*
G01*
X2551450Y7774348D01*
X2576903Y7850710D02*
G01*
X2525994Y7850710D01*
X3049993Y7700711D02*
G01*
X3049993Y7646167D01*
X3046356Y7635257D01*
X3039084Y7627985D01*
X3028175Y7624348D01*
X3020903Y7624348D01*
X3009993Y7627985D01*
X3002721Y7635257D01*
X2999084Y7646167D01*
X2999084Y7700711D01*
X2924175Y7700711D02*
G01*
X2960540Y7624348D01*
X2975084Y7700711D02*
G01*
X2924175Y7700711D01*
X2896539Y7642529D02*
G01*
X2900177Y7638895D01*
X2896539Y7635257D01*
X2892902Y7638895D01*
X2896539Y7642529D01*
X2812902Y7700711D02*
G01*
X2812902Y7624348D01*
X2812902Y7700711D02*
G01*
X2780177Y7700711D01*
X2769268Y7697076D01*
X2765630Y7693439D01*
X2761993Y7686167D01*
X2761993Y7678894D01*
X2765630Y7671620D01*
X2769268Y7667985D01*
X2780177Y7664348D01*
X2812902Y7664348D01*
X2787449Y7664348D02*
G01*
X2761993Y7624348D01*
X2737995Y7700711D02*
G01*
X2737995Y7624348D01*
X2737995Y7700711D02*
G01*
X2690721Y7700711D01*
X2737995Y7664348D02*
G01*
X2708904Y7664348D01*
X2737995Y7624348D02*
G01*
X2690721Y7624348D01*
X2666723Y7700711D02*
G01*
X2637629Y7624348D01*
X2608539Y7700711D02*
G01*
X2637629Y7624348D01*
X2528539Y7686167D02*
G01*
X2521267Y7689801D01*
X2510358Y7700711D01*
X2510358Y7624348D01*
X3059993Y7560711D02*
G01*
X3059993Y7484348D01*
X3059993Y7560711D02*
G01*
X3009084Y7484348D01*
X3009084Y7560711D02*
G01*
X3009084Y7484348D01*
X2930540Y7542529D02*
G01*
X2934174Y7549802D01*
X2941449Y7557076D01*
X2948721Y7560711D01*
X2963265Y7560711D01*
X2970540Y7557076D01*
X2977812Y7549802D01*
X2981449Y7542529D01*
X2985084Y7531620D01*
X2985084Y7513439D01*
X2981449Y7502530D01*
X2977812Y7495258D01*
X2970540Y7487986D01*
X2963265Y7484348D01*
X2948721Y7484348D01*
X2941449Y7487986D01*
X2934174Y7495258D01*
X2930540Y7502530D01*
X2906539Y7560711D02*
G01*
X2906539Y7484348D01*
X2906539Y7484348D02*
G01*
X2862902Y7484348D01*
X2838904Y7560711D02*
G01*
X2838904Y7484348D01*
X2838904Y7560711D02*
G01*
X2806176Y7560711D01*
X2795267Y7557076D01*
X2791630Y7553439D01*
X2787995Y7546167D01*
X2787995Y7538895D01*
X2791630Y7531620D01*
X2795267Y7527985D01*
X2806176Y7524348D01*
X2838904Y7524348D01*
X2813448Y7524348D02*
G01*
X2787995Y7484348D01*
X2763994Y7560711D02*
G01*
X2763994Y7484348D01*
X2763994Y7560711D02*
G01*
X2731267Y7560711D01*
X2720357Y7557076D01*
X2716723Y7553439D01*
X2713085Y7546167D01*
X2713085Y7535257D01*
X2716723Y7527985D01*
X2720357Y7524348D01*
X2731267Y7520711D01*
X2763994Y7520711D01*
X2689085Y7560711D02*
G01*
X2689085Y7484348D01*
X2638176Y7560711D02*
G01*
X2638176Y7484348D01*
X2689085Y7524348D02*
G01*
X2638176Y7524348D01*
X2614175Y7560711D02*
G01*
X2614175Y7484348D01*
X2614175Y7560711D02*
G01*
X2563266Y7484348D01*
X2563266Y7560711D02*
G01*
X2563266Y7484348D01*
X2539268Y7560711D02*
G01*
X2488359Y7484348D01*
X2488359Y7560711D02*
G01*
X2539268Y7484348D01*
M02*
